#N canvas 623 46 416 319 10;
#N canvas 509 22 450 369 fire 0;
#N canvas 2 22 450 392 hissing 0;
#X obj 146 273 *~;
#X obj 234 87 lop~ 1;
#X obj 234 138 *~;
#X obj 234 170 *~;
#X obj 234 108 *~ 10;
#X obj 234 190 *~ 600;
#X obj 126 161 hip~ 1200;
#X obj 146 295 outlet~;
#X obj 131 26 inlet~;
#X connect 0 0 7 0;
#X connect 1 0 4 0;
#X connect 2 0 3 0;
#X connect 2 0 3 1;
#X connect 3 0 5 0;
#X connect 4 0 2 0;
#X connect 4 0 2 1;
#X connect 5 0 0 1;
#X connect 6 0 0 0;
#X connect 8 0 6 0;
#X connect 8 0 1 0;
#X restore 100 75 pd hissing;
#N canvas 647 169 450 701 crackling 0;
#X obj 240 393 *~, f 2;
#X obj 296 282 line~;
#X msg 296 187 bang, f 6;
#X obj 211 311 bp~ 2000 1;
#X obj 296 209 random 30;
#X msg 296 259 1 \, 0 \$1;
#X obj 239 285 + 1500;
#X obj 239 263 * 500;
#X obj 296 314 *~;
#X obj 296 346 *~;
#X obj 240 415 outlet~;
#X obj 181 70 inlet~;
#X obj 251 145 moses 42;
#X obj 296 167 moses 58;
#X obj 251 120 inlet;
#X connect 0 0 10 0;
#X connect 1 0 8 0;
#X connect 1 0 8 1;
#X connect 2 0 4 0;
#X connect 3 0 0 0;
#X connect 4 0 5 0;
#X connect 4 0 7 0;
#X connect 5 0 1 0;
#X connect 6 0 3 1;
#X connect 7 0 6 0;
#X connect 8 0 9 0;
#X connect 8 0 9 1;
#X connect 9 0 0 1;
#X connect 11 0 3 0;
#X connect 12 1 13 0;
#X connect 13 0 2 0;
#X connect 14 0 12 0;
#X restore 180 75 pd crackling;
#N canvas 0 22 450 346 flame 0;
#X obj 210 69 bp~ 30 5;
#X obj 210 116 hip~ 25;
#X obj 210 138 clip~ -0.9 0.9;
#X obj 210 91 *~ 100;
#X obj 210 160 hip~ 25;
#X obj 210 182 outlet~;
#X obj 210 47 inlet~;
#X connect 0 0 3 0;
#X connect 1 0 2 0;
#X connect 2 0 4 0;
#X connect 3 0 1 0;
#X connect 4 0 5 0;
#X connect 6 0 0 0;
#X restore 269 75 pd flame;
#X obj 180 104 *~ 0.3;
#X obj 100 104 *~ 0.25;
#X obj 269 104 *~ 0.5;
#X obj 112 15 noise~;
#X obj 226 250 outlet~;
#X obj 243 21 inlet;
#X connect 0 0 4 0;
#X connect 1 0 3 0;
#X connect 2 0 5 0;
#X connect 3 0 7 0;
#X connect 4 0 7 0;
#X connect 5 0 7 0;
#X connect 6 0 0 0;
#X connect 6 0 2 0;
#X connect 6 0 1 0;
#X connect 8 0 1 1;
#X restore 16 132 pd fire;
#X obj 16 154 bp~ 600 0.2;
#X obj 116 154 bp~ 1200 0.6;
#X obj 296 154 hip~ 1000;
#X obj 206 154 bp~ 2600 0.4;
#X obj 129 54 random 100;
#X obj 129 11 loadbang;
#X obj 129 33 metro 30;
#N canvas 509 22 450 369 fire 0;
#N canvas 2 22 450 392 hissing 0;
#X obj 146 273 *~;
#X obj 234 87 lop~ 1;
#X obj 234 138 *~;
#X obj 234 170 *~;
#X obj 234 108 *~ 10;
#X obj 234 190 *~ 600;
#X obj 126 161 hip~ 1200;
#X obj 146 295 outlet~;
#X obj 131 26 inlet~;
#X connect 0 0 7 0;
#X connect 1 0 4 0;
#X connect 2 0 3 0;
#X connect 2 0 3 1;
#X connect 3 0 5 0;
#X connect 4 0 2 0;
#X connect 4 0 2 1;
#X connect 5 0 0 1;
#X connect 6 0 0 0;
#X connect 8 0 6 0;
#X connect 8 0 1 0;
#X restore 100 75 pd hissing;
#N canvas 647 169 450 701 crackling 0;
#X obj 240 393 *~, f 2;
#X obj 296 282 line~;
#X msg 296 187 bang, f 6;
#X obj 211 311 bp~ 2000 1;
#X obj 296 209 random 30;
#X msg 296 259 1 \, 0 \$1;
#X obj 239 285 + 1500;
#X obj 239 263 * 500;
#X obj 296 314 *~;
#X obj 296 346 *~;
#X obj 240 415 outlet~;
#X obj 181 70 inlet~;
#X obj 251 145 moses 42;
#X obj 296 167 moses 58;
#X obj 251 120 inlet;
#X connect 0 0 10 0;
#X connect 1 0 8 0;
#X connect 1 0 8 1;
#X connect 2 0 4 0;
#X connect 3 0 0 0;
#X connect 4 0 5 0;
#X connect 4 0 7 0;
#X connect 5 0 1 0;
#X connect 6 0 3 1;
#X connect 7 0 6 0;
#X connect 8 0 9 0;
#X connect 8 0 9 1;
#X connect 9 0 0 1;
#X connect 11 0 3 0;
#X connect 12 1 13 0;
#X connect 13 0 2 0;
#X connect 14 0 12 0;
#X restore 180 75 pd crackling;
#N canvas 0 22 450 346 flame 0;
#X obj 210 69 bp~ 30 5;
#X obj 210 116 hip~ 25;
#X obj 210 138 clip~ -0.9 0.9;
#X obj 210 91 *~ 100;
#X obj 210 160 hip~ 25;
#X obj 210 182 outlet~;
#X obj 210 47 inlet~;
#X connect 0 0 3 0;
#X connect 1 0 2 0;
#X connect 2 0 4 0;
#X connect 3 0 1 0;
#X connect 4 0 5 0;
#X connect 6 0 0 0;
#X restore 269 75 pd flame;
#X obj 180 104 *~ 0.3;
#X obj 100 104 *~ 0.25;
#X obj 269 104 *~ 0.5;
#X obj 112 15 noise~;
#X obj 226 250 outlet~;
#X obj 243 21 inlet;
#X connect 0 0 4 0;
#X connect 1 0 3 0;
#X connect 2 0 5 0;
#X connect 3 0 7 0;
#X connect 4 0 7 0;
#X connect 5 0 7 0;
#X connect 6 0 0 0;
#X connect 6 0 2 0;
#X connect 6 0 1 0;
#X connect 8 0 1 1;
#X restore 116 132 pd fire;
#N canvas 509 22 450 369 fire 0;
#N canvas 2 22 450 392 hissing 0;
#X obj 146 273 *~;
#X obj 234 87 lop~ 1;
#X obj 234 138 *~;
#X obj 234 170 *~;
#X obj 234 108 *~ 10;
#X obj 234 190 *~ 600;
#X obj 126 161 hip~ 1200;
#X obj 146 295 outlet~;
#X obj 131 26 inlet~;
#X connect 0 0 7 0;
#X connect 1 0 4 0;
#X connect 2 0 3 0;
#X connect 2 0 3 1;
#X connect 3 0 5 0;
#X connect 4 0 2 0;
#X connect 4 0 2 1;
#X connect 5 0 0 1;
#X connect 6 0 0 0;
#X connect 8 0 6 0;
#X connect 8 0 1 0;
#X restore 100 75 pd hissing;
#N canvas 647 169 450 701 crackling 0;
#X obj 240 393 *~, f 2;
#X obj 296 282 line~;
#X msg 296 187 bang, f 6;
#X obj 211 311 bp~ 2000 1;
#X obj 296 209 random 30;
#X msg 296 259 1 \, 0 \$1;
#X obj 239 285 + 1500;
#X obj 239 263 * 500;
#X obj 296 314 *~;
#X obj 296 346 *~;
#X obj 240 415 outlet~;
#X obj 181 70 inlet~;
#X obj 251 145 moses 42;
#X obj 296 167 moses 58;
#X obj 251 120 inlet;
#X connect 0 0 10 0;
#X connect 1 0 8 0;
#X connect 1 0 8 1;
#X connect 2 0 4 0;
#X connect 3 0 0 0;
#X connect 4 0 5 0;
#X connect 4 0 7 0;
#X connect 5 0 1 0;
#X connect 6 0 3 1;
#X connect 7 0 6 0;
#X connect 8 0 9 0;
#X connect 8 0 9 1;
#X connect 9 0 0 1;
#X connect 11 0 3 0;
#X connect 12 1 13 0;
#X connect 13 0 2 0;
#X connect 14 0 12 0;
#X restore 180 75 pd crackling;
#N canvas 0 22 450 346 flame 0;
#X obj 210 69 bp~ 30 5;
#X obj 210 116 hip~ 25;
#X obj 210 138 clip~ -0.9 0.9;
#X obj 210 91 *~ 100;
#X obj 210 160 hip~ 25;
#X obj 210 182 outlet~;
#X obj 210 47 inlet~;
#X connect 0 0 3 0;
#X connect 1 0 2 0;
#X connect 2 0 4 0;
#X connect 3 0 1 0;
#X connect 4 0 5 0;
#X connect 6 0 0 0;
#X restore 269 75 pd flame;
#X obj 180 104 *~ 0.3;
#X obj 100 104 *~ 0.25;
#X obj 269 104 *~ 0.5;
#X obj 112 15 noise~;
#X obj 226 250 outlet~;
#X obj 243 21 inlet;
#X connect 0 0 4 0;
#X connect 1 0 3 0;
#X connect 2 0 5 0;
#X connect 3 0 7 0;
#X connect 4 0 7 0;
#X connect 5 0 7 0;
#X connect 6 0 0 0;
#X connect 6 0 2 0;
#X connect 6 0 1 0;
#X connect 8 0 1 1;
#X restore 206 132 pd fire;
#N canvas 509 22 450 369 fire 0;
#N canvas 2 22 450 392 hissing 0;
#X obj 146 273 *~;
#X obj 234 87 lop~ 1;
#X obj 234 138 *~;
#X obj 234 170 *~;
#X obj 234 108 *~ 10;
#X obj 234 190 *~ 600;
#X obj 126 161 hip~ 1200;
#X obj 146 295 outlet~;
#X obj 131 26 inlet~;
#X connect 0 0 7 0;
#X connect 1 0 4 0;
#X connect 2 0 3 0;
#X connect 2 0 3 1;
#X connect 3 0 5 0;
#X connect 4 0 2 0;
#X connect 4 0 2 1;
#X connect 5 0 0 1;
#X connect 6 0 0 0;
#X connect 8 0 6 0;
#X connect 8 0 1 0;
#X restore 100 75 pd hissing;
#N canvas 647 169 450 701 crackling 0;
#X obj 240 393 *~, f 2;
#X obj 296 282 line~;
#X msg 296 187 bang, f 6;
#X obj 211 311 bp~ 2000 1;
#X obj 296 209 random 30;
#X msg 296 259 1 \, 0 \$1;
#X obj 239 285 + 1500;
#X obj 239 263 * 500;
#X obj 296 314 *~;
#X obj 296 346 *~;
#X obj 240 415 outlet~;
#X obj 181 70 inlet~;
#X obj 251 145 moses 42;
#X obj 296 167 moses 58;
#X obj 251 120 inlet;
#X connect 0 0 10 0;
#X connect 1 0 8 0;
#X connect 1 0 8 1;
#X connect 2 0 4 0;
#X connect 3 0 0 0;
#X connect 4 0 5 0;
#X connect 4 0 7 0;
#X connect 5 0 1 0;
#X connect 6 0 3 1;
#X connect 7 0 6 0;
#X connect 8 0 9 0;
#X connect 8 0 9 1;
#X connect 9 0 0 1;
#X connect 11 0 3 0;
#X connect 12 1 13 0;
#X connect 13 0 2 0;
#X connect 14 0 12 0;
#X restore 180 75 pd crackling;
#N canvas 0 22 450 346 flame 0;
#X obj 210 69 bp~ 30 5;
#X obj 210 116 hip~ 25;
#X obj 210 138 clip~ -0.9 0.9;
#X obj 210 91 *~ 100;
#X obj 210 160 hip~ 25;
#X obj 210 182 outlet~;
#X obj 210 47 inlet~;
#X connect 0 0 3 0;
#X connect 1 0 2 0;
#X connect 2 0 4 0;
#X connect 3 0 1 0;
#X connect 4 0 5 0;
#X connect 6 0 0 0;
#X restore 269 75 pd flame;
#X obj 180 104 *~ 0.3;
#X obj 100 104 *~ 0.25;
#X obj 269 104 *~ 0.5;
#X obj 112 15 noise~;
#X obj 226 250 outlet~;
#X obj 243 21 inlet;
#X connect 0 0 4 0;
#X connect 1 0 3 0;
#X connect 2 0 5 0;
#X connect 3 0 7 0;
#X connect 4 0 7 0;
#X connect 5 0 7 0;
#X connect 6 0 0 0;
#X connect 6 0 2 0;
#X connect 6 0 1 0;
#X connect 8 0 1 1;
#X restore 296 132 pd fire;
#X obj 124 265 *~ 1;
#X obj 293 184 r amp;
#X obj 124 307 dac~;
#X obj 293 206 / 100;
#X connect 0 0 1 0;
#X connect 1 0 11 0;
#X connect 2 0 11 0;
#X connect 3 0 11 0;
#X connect 4 0 11 0;
#X connect 5 0 0 0;
#X connect 5 0 8 0;
#X connect 5 0 10 0;
#X connect 5 0 9 0;
#X connect 6 0 7 0;
#X connect 7 0 5 0;
#X connect 11 0 13 0;
#X connect 11 0 13 1;
#X connect 12 0 14 0;
#X connect 14 0 11 1;
