#N canvas 20 90 924 795 10;
#X obj 38 240 line~;
#X obj 38 179 loadbang;
#X obj 124 33 r freq;
#X obj 38 269 phasor~;
#X obj 431 159 loadbang;
#X obj 524 247 bng 15 250 50 0 empty empty empty 17 7 0 10 -262144
-1 -1;
#X obj 524 216 metro 500;
#X obj 557 166 bng 15 250 50 0 empty empty empty 17 7 0 10 -262144
-1 -1;
#X obj 549 553 send banga;
#X obj 515 291 random 256;
#X obj 408 294 /;
#X msg 420 235 1;
#X obj 434 359 * 100000;
#X floatatom 448 403 5 0 0 0 - - -, f 5;
#X msg 84 304 1 \, 0 100;
#X obj 56 368 *~;
#X obj 83 333 line~;
#X msg 38 210 220;
#X floatatom 181 30 5 0 0 0 - - -, f 5;
#X obj 324 191 t b f;
#X obj 185 346 r amp;
#X obj 110 470 line~;
#X msg 123 442 \$1 50;
#X obj 67 523 *~;
#X obj 69 564 dac~;
#X floatatom 320 394 5 0 0 0 - - -, f 5;
#X obj 128 419 / 100;
#X msg 355 418 50;
#X msg 140 197 \$1 50;
#X obj 256 38 receive freq;
#X floatatom 276 83 5 0 0 0 - - -, f 5;
#X connect 0 0 3 0;
#X connect 1 0 17 0;
#X connect 2 0 28 0;
#X connect 2 0 19 0;
#X connect 3 0 15 0;
#X connect 4 0 6 0;
#X connect 4 0 11 0;
#X connect 4 0 27 0;
#X connect 5 0 9 0;
#X connect 5 0 14 0;
#X connect 6 0 5 0;
#X connect 7 0 6 0;
#X connect 9 0 8 0;
#X connect 10 0 12 0;
#X connect 11 0 10 0;
#X connect 12 0 6 1;
#X connect 12 0 13 0;
#X connect 14 0 16 0;
#X connect 15 0 23 0;
#X connect 16 0 15 1;
#X connect 17 0 0 0;
#X connect 17 0 10 1;
#X connect 18 0 28 0;
#X connect 18 0 19 0;
#X connect 19 0 10 0;
#X connect 19 1 10 1;
#X connect 20 0 26 0;
#X connect 21 0 23 1;
#X connect 22 0 21 0;
#X connect 23 0 24 0;
#X connect 23 0 24 1;
#X connect 25 0 26 0;
#X connect 26 0 22 0;
#X connect 27 0 26 0;
#X connect 28 0 0 0;
#X connect 29 0 30 0;
